<svg xmlns="http://www.w3.org/2000/svg" viewBox="0 0 120 120" enable-background="new 0 0 120 120"><style type="text/css">.st0{fill:#ffffff;} .st1{fill:#ffc300;}</style><path id="sparkles" class="st1" d="M43.449 15h2.5v2.5c0 .552.448 1 1 1s1-.448 1-1v-2.5h2.5c.552 0 1-.448 1-1s-.448-1-1-1h-2.5v-2.5c0-.552-.448-1-1-1s-1 .448-1 1v2.5h-2.5c-.552 0-1 .448-1 1s.448 1 1 1zm-19.449 19c1.105 0 2-.895 2-2s-.895-2-2-2-2 .895-2 2 .895 2 2 2zm9.5-24c1.105 0 2-.895 2-2s-.895-2-2-2-2 .895-2 2 .895 2 2 2zm-14.051 10.105c0-.552-.448-1-1-1h-2.5v-2.5c0-.552-.448-1-1-1s-1 .448-1 1v2.5h-2.5c-.552 0-1 .448-1 1s.448 1 1 1h2.5v2.5c0 .552.448 1 1 1s1-.448 1-1v-2.5h2.5c.552 0 1-.447 1-1z"/><path id="icon_1" class="st0" d="M106.121 66.849c.059-.718.094-1.444.094-2.167 0-7.628-3.171-14.626-8.703-19.258-.906-2.847-2.343-5.488-4.29-7.758-3.624-4.223-8.536-6.675-13.857-6.958-1.221-3.489-3.83-5.991-6.534-5.991-3.702 0-5.253 1.488-6.97 4.454-2.258-2.3-6.001-3.133-8.664-3.133-2.546 0-6.199.911-8.563 3.723l-.058-.067-20.035-15.413c-.372-.286-.892-.275-1.254.027-.359.303-.46.814-.241 1.23l14.141 26.901c-2.951.487-6.372-.253-7.623-1.312-.297-.252-.713-.308-1.067-.144-.353.164-.579.518-.579.907 0 2.957 1.945 5.888 4.949 7.847l-15.88 15.88-.05.054c-2.831 2.683-4.452 6.447-4.452 10.349 0 7.857 6.393 14.25 14.25 14.25 4.299 0 8.351-1.944 11.048-5.252 2.544 2.09 5.71 3.229 9.03 3.229 3.131 0 6.095-1.032 8.502-2.821l-8.633 20.844c-.211.511.031 1.096.541 1.307.125.052.255.076.382.076.393 0 .765-.232.924-.617l11.108-26.818c.223-.458.422-.932.596-1.418.091-.253.071-.534-.047-.775-.117-.242-.332-.428-.587-.513-.499-.169-1.04.081-1.24.565l-.546 1.318c-2.04 4.149-6.302 6.853-11.001 6.853-3.177 0-6.19-1.214-8.484-3.418-.211-.204-.503-.3-.792-.274-.292.029-.556.185-.723.426-2.292 3.312-6.06 5.289-10.079 5.289-.33 0-.654-.024-.977-.049.163-.659.313-1.323.434-1.99 1.412-7.844-.211-15.78-4.556-22.433l13.053-13.053c.639.294 1.307.55 2.005.754 1.368.4 2.745.596 4.117.596 6.076 0 12.041-3.848 16.532-10.866 2.248-3.511 3.697-6.272 4.862-8.49 2.429-4.625 3.162-6.021 6.626-6.021 2.211 0 4.556 2.977 5.119 6.5.321 2.009.657 8.796-8.514 11.807-.525.172-.811.737-.639 1.262.173.525.738.81 1.262.638 1.141-.375 2.159-.817 3.08-1.306 5.384 3.275 8.69 9.645 8.452 16.403-.146 4.116-1.521 7.953-3.979 11.096-.236.304-.278.716-.107 1.061.169.341.516.556.896.556h.014c2.063-.029 4.052-.39 5.926-1.031.036.337.058.677.058 1.017 0 5.199-4.229 9.429-9.429 9.429-.338 0-.67-.02-.998-.054-.46-.053-.903.231-1.053.677-.148.444.031.933.433 1.174 1.137.685 2.335 1.263 3.562 1.717l.391.126c-2.052 2.055-3.931 4.894-3.725 9.112.263 5.427 3.247 9.144 8.403 10.464l.248.031c.277 0 .547-.116.739-.326.249-.274.327-.663.202-1.011-.647-1.809-.452-3.876.523-5.53.977-1.654 2.69-2.826 4.586-3.134.939-.152 1.909-.107 2.935-.057.654.031 1.333.063 2.017.042 1.683-.053 3.487-.5 5.082-1.261 3.11-1.482 5.949-3.909 8.209-7.019 2.274-3.129 3.526-6.989 3.526-10.868.002-4.125-1.398-8.146-3.928-11.385zm-77.898 19.026c-.122.677-.276 1.351-.445 2.018-5.328-1.328-9.293-6.14-9.293-11.874 0-3.385 1.42-6.65 3.896-8.96l.094-.101 1.716-1.716c3.892 6.151 5.328 13.435 4.032 20.633zm2.718-67.225l16.417 12.628.2.098c-.78 1.468-1.268 3.292-1.268 5.569 0 2.314-1.001 3.952-2.976 4.868l-.162.066-12.211-23.229zm33.494 13.158c-1.147 2.185-2.575 4.903-4.776 8.342-7.208 11.262-15.271 10.345-18.404 9.429-3.357-.982-6.052-3.305-6.984-5.817 2.762 1.042 6.912 1.245 9.885-.133 1.886-.875 4.134-2.744 4.134-6.682 0-8.658 7.997-8.908 8.908-8.908 2.61 0 5.968.905 7.585 2.927l.06.067-.408.775zm15.992 40.774c1.942-3.106 3.029-6.693 3.163-10.491.251-7.121-3.077-13.869-8.574-17.646 4.371-3.185 5.516-7.753 4.909-11.545l-.027-.141c4.525.41 8.691 2.576 11.808 6.208 3.354 3.909 5.097 9.015 4.908 14.379-.351 9.98-7.3 18.044-16.187 19.236zm5.971 2.136c0-.6-.064-1.196-.157-1.787 7.05-3.282 12.061-10.718 12.37-19.513.052-1.486-.034-2.953-.247-4.387 3.703 4.138 5.852 9.775 5.852 15.651 0 .792-.038 1.59-.113 2.372-1.089 11.336-9.717 19.884-20.069 19.884-2.168 0-4.299-.377-6.336-1.12 4.989-1.226 8.7-5.738 8.7-11.1zm18.509 13.205c-2.064 2.84-4.642 5.05-7.453 6.39-1.35.644-2.871 1.022-4.283 1.066-.607.022-1.214-.01-1.858-.041-1.082-.052-2.204-.104-3.351.08-2.476.402-4.714 1.933-5.988 4.093-.95 1.611-1.334 3.523-1.116 5.372-3.273-1.385-5.089-4.148-5.279-8.082-.155-3.177 1.089-5.778 3.983-8.377 1.465.328 2.958.514 4.472.514 10.592 0 19.527-8.072 21.681-19.149 1.511 2.541 2.336 5.461 2.336 8.442 0 3.459-1.116 6.902-3.144 9.692zm-48.26-30.72c-.391-.391-1.023-.391-1.414 0l-3.182 3.182-3.182-3.182c-.391-.391-1.023-.391-1.414 0s-.391 1.023 0 1.414l3.182 3.182-3.182 3.182c-.391.391-.391 1.023 0 1.414.195.195.451.293.707.293s.512-.098.707-.293l3.182-3.182 3.182 3.182c.195.195.451.293.707.293s.512-.098.707-.293c.391-.391.391-1.023 0-1.414l-3.182-3.182 3.182-3.182c.391-.39.391-1.023 0-1.414z"/></svg>